<?xml version="1.0" encoding="UTF-8" standalone="no"?>
<svg
   xmlns:dc="http://purl.org/dc/elements/1.1/"
   xmlns:cc="http://creativecommons.org/ns#"
   xmlns:rdf="http://www.w3.org/1999/02/22-rdf-syntax-ns#"
   xmlns:svg="http://www.w3.org/2000/svg"
   xmlns="http://www.w3.org/2000/svg"
   xmlns:sodipodi="http://sodipodi.sourceforge.net/DTD/sodipodi-0.dtd"
   xmlns:inkscape="http://www.inkscape.org/namespaces/inkscape"
   version="1.1"
   id="svg2"
   xml:space="preserve"
   width="2275.2964"
   height="672"
   viewBox="0 0 2275.2964 672"
   sodipodi:docname="all_results_venn.svg"
   inkscape:version="1.0.2 (1.0.2+r75+1)"><metadata
     id="metadata8"><rdf:RDF><cc:Work
         rdf:about=""><dc:format>image/svg+xml</dc:format><dc:type
           rdf:resource="http://purl.org/dc/dcmitype/StillImage" /><dc:title></dc:title></cc:Work></rdf:RDF></metadata><defs
     id="defs6" /><sodipodi:namedview
     pagecolor="#ffffff"
     bordercolor="#666666"
     borderopacity="1"
     objecttolerance="10"
     gridtolerance="10"
     guidetolerance="10"
     inkscape:pageopacity="0"
     inkscape:pageshadow="2"
     inkscape:window-width="1920"
     inkscape:window-height="1016"
     id="namedview4"
     showgrid="false"
     inkscape:zoom="0.45"
     inkscape:cx="1135.6455"
     inkscape:cy="245.58371"
     inkscape:window-x="0"
     inkscape:window-y="27"
     inkscape:window-maximized="1"
     inkscape:current-layer="g10" /><g
     id="g10"
     inkscape:groupmode="layer"
     inkscape:label="Custom_results_venn"
     transform="matrix(1.3333333,0,0,-1.3333333,249.55192,805.72923)"><text
       transform="scale(1,-1)"
       style="font-variant:normal;font-weight:normal;font-size:24.0000006px;font-family:Calibri;-inkscape-font-specification:'Calibri, Normal';writing-mode:lr-tb;fill:#000000;fill-opacity:1;fill-rule:nonzero;stroke:none;font-style:normal;font-stretch:normal;font-variant-ligatures:normal;font-variant-caps:normal;font-variant-numeric:normal;font-variant-east-asian:normal;"
       id="text20"
       x="28.93605"
       y="-543.42395"><tspan
         x="28.93605"
         y="-543.42395"
         sodipodi:role="line"
         id="tspan18">Custom</tspan></text><path
       d="m -30.65395,185.86394 4.77,0.25 4.75,0.39 4.74,0.55 4.72,0.69 4.7,0.84 4.66,0.99 1.26,0.31 -1.52,1.22 -4.55,3.87 -4.41,4.02 -4.29,4.16 -4.16,4.28 -4.01,4.42 -3.88,4.54 -3.73,4.66 -3.58,4.78 -3.43,4.89 -3.27,4.99 -3.12,5.1 -2.95,5.19 -2.78,5.28 -2.62,5.36 -2.45,5.45 -2.27,5.52 -2.1,5.59 -1.92,5.65 -1.75,5.71 -1.56,5.77 -1.37,5.81 -1.2,5.85 -1.01,5.88 -0.82,5.91 -0.63,5.94 -0.45,5.95 -0.26,5.97 -0.07,5.97 0.12,5.97 0.3,5.96 0.5,5.95 0.68,5.93 0.87,5.91 1.05,5.88 1.24,5.84 1.42,5.8 1.61,5.75 1.79,5.69 1.96,5.64 2.14,5.57 2.32,5.51 2.49,5.42 2.66,5.35 2.83,5.26 2.99,5.16 3.15,5.07 3.32,4.97 3.46,4.86 3.62,4.75 3.77,4.63 3.91,4.51 4.05,4.39 4.19,4.25 4.32,4.12 4.45,3.99 4.57,3.84 0.37,0.29 -0.09,0.02 -4.66,1.03 -4.69,0.88 -4.71,0.73 -4.74,0.58 -4.75,0.44 -4.76,0.28 -4.77,0.13 -4.77,-0.02 -4.77,-0.17 -4.76,-0.32 -4.75,-0.47 -4.73,-0.62 -4.71,-0.77 -4.68,-0.91 -4.65,-1.07 -4.61,-1.21 -4.58,-1.35 -4.53,-1.5 -4.47,-1.65 -4.43,-1.78 -4.37,-1.92 -4.3,-2.06 -4.24,-2.19 -4.16,-2.32 -4.09,-2.46 -4.01,-2.58 -3.93,-2.71 -3.84,-2.83 -3.75,-2.96 -3.65,-3.06 -3.56,-3.19 -3.45,-3.29 -3.34,-3.4 -3.24,-3.5 -3.13,-3.61 -3.01,-3.7 -2.89,-3.79 -2.77,-3.89 -2.65,-3.97 -2.52,-4.05 -2.39,-4.13 -2.26,-4.2 -2.12,-4.27 -1.99,-4.34 -1.85,-4.39 -1.71,-4.45 -1.57,-4.51 -1.43,-4.55 -1.29,-4.6 -1.13,-4.63 -0.99,-4.67 -0.85,-4.69 -0.69,-4.72 -0.54,-4.74 -0.4,-4.76 -0.24,-4.76 -0.1,-4.77 0.06,-4.77 0.21,-4.77 0.35,-4.75 0.51,-4.75 0.66,-4.72 0.8,-4.7 0.96,-4.68 1.1,-4.64 1.25,-4.61 1.39,-4.56 1.53,-4.52 1.68,-4.46 1.82,-4.41 1.95,-4.35 2.09,-4.29 2.23,-4.22 2.36,-4.15 2.49,-4.07 2.61,-3.99 2.74,-3.9 2.86,-3.82 2.98,-3.73 3.1,-3.63 3.21,-3.52 3.32,-3.43 3.43,-3.32 3.53,-3.21 3.63,-3.1 3.72,-2.98 3.82,-2.86 3.9,-2.74 3.99,-2.61 4.07,-2.49 4.15,-2.36 4.22,-2.23 4.29,-2.09 4.35,-1.95 4.41,-1.82 4.47,-1.68 4.52,-1.53 4.56,-1.39 4.6,-1.25 4.65,-1.1 4.67,-0.95 4.7,-0.81 4.73,-0.66 4.74,-0.5 4.76,-0.36 4.76,-0.21 4.77,-0.05 z"
       style="fill:#440154;fill-opacity:0.498;fill-rule:nonzero;stroke:none"
       id="path24" /><path
       d="m 124.60605,147.88394 5.97,0.31 5.95,0.49 5.93,0.68 5.91,0.87 5.87,1.06 5.84,1.24 5.8,1.42 5.75,1.61 5.7,1.79 5.64,1.96 5.57,2.14 5.5,2.32 5.43,2.49 5.34,2.66 5.26,2.83 5.17,2.99 5.07,3.16 4.96,3.31 4.87,3.47 4.74,3.61 4.64,3.77 4.51,3.91 4.38,4.06 4.26,4.18 4.12,4.32 3.98,4.45 3.84,4.58 3.69,4.69 3.55,4.8 3.39,4.92 3.23,5.02 3.07,5.11 2.91,5.22 2.75,5.3 2.57,5.39 2.4,5.46 2.23,5.54 2.06,5.61 1.88,5.66 1.69,5.73 1.52,5.77 1.33,5.82 1.15,5.86 0.96,5.9 0.77,5.92 0.59,5.94 0.4,5.96 0.21,5.96 0.03,5.97 -0.17,5.97 -0.35,5.96 -0.54,5.95 -0.73,5.92 -0.92,5.9 -1.1,5.87 -1.29,5.83 -1.47,5.79 -1.65,5.74 -1.83,5.68 -2.01,5.62 -2.19,5.56 -2.36,5.48 -2.53,5.41 -2.7,5.32 -2.87,5.24 -3.03,5.14 -3.2,5.04 -3.35,4.94 -3.5,4.84 -3.66,4.72 -3.8,4.6 -3.95,4.48 -4.09,4.35 -4.22,4.22 -4.35,4.09 -4.48,3.95 -4.61,3.8 -4.72,3.66 -4.83,3.5 -4.94,3.35 -5.05,3.2 -5.14,3.03 -5.23,2.87 -5.33,2.7 -5.41,2.53 -5.48,2.36 -5.55,2.19 -5.63,2.01 -5.68,1.83 -5.74,1.65 -5.78,1.47 -5.83,1.29 -5.87,1.1 -5.9,0.91 -5.93,0.73 -5.94,0.54 -5.97,0.36 -5.96,0.16 -5.97,-0.02 -5.97,-0.22 -5.96,-0.4 -5.94,-0.58 -5.92,-0.78 -5.89,-0.96 -5.86,-1.15 -5.82,-1.33 -5.78,-1.52 -5.72,-1.69 -5.67,-1.88 -5.6,-2.05 -5.54,-2.23 -5.47,-2.41 -5.38,-2.57 -5.31,-2.75 -5.21,-2.91 -5.12,-3.07 -5.02,-3.24 -4.91,-3.39 -4.81,-3.54 -4.32,-3.4 4.53,-1.15 4.59,-1.32 4.54,-1.46 4.49,-1.61 4.44,-1.75 4.38,-1.88 4.32,-2.03 4.26,-2.15 4.18,-2.3 4.11,-2.42 4.03,-2.55 3.95,-2.68 3.86,-2.8 3.77,-2.92 3.68,-3.04 3.58,-3.15 3.48,-3.27 3.37,-3.37 3.27,-3.48 3.15,-3.58 3.04,-3.68 2.92,-3.77 2.8,-3.86 2.68,-3.95 2.55,-4.03 2.42,-4.11 2.3,-4.18 2.16,-4.26 2.02,-4.32 1.89,-4.38 1.74,-4.44 1.61,-4.49 1.46,-4.54 1.32,-4.59 1.18,-4.62 1.02,-4.66 0.88,-4.69 0.74,-4.71 0.58,-4.74 0.43,-4.75 0.28,-4.76 0.14,-4.77 -0.02,-4.77 -0.17,-4.77 -0.32,-4.76 -0.47,-4.74 -0.62,-4.73 -0.77,-4.71 -0.92,-4.68 -1.06,-4.66 -1.21,-4.61 -1.36,-4.57 -1.5,-4.53 -1.64,-4.48 -1.78,-4.43 -1.92,-4.36 -2.06,-4.31 -2.19,-4.24 -2.32,-4.16 -2.46,-4.09 -2.58,-4.01 -2.71,-3.93 -2.83,-3.84 -2.96,-3.75 -3.06,-3.65 -3.19,-3.56 -3.29,-3.45 -3.4,-3.34 -3.5,-3.24 -3.61,-3.13 -3.7,-3.01 -3.79,-2.89 -3.88,-2.77 -3.97,-2.65 -4.05,-2.52 -4.13,-2.39 -4.2,-2.26 -4.28,-2.12 -4.33,-1.99 -4.4,-1.85 -4.45,-1.72 -4.51,-1.57 -4.55,-1.43 -4.59,-1.28 -3.38,-0.83 3.14,-2.51 4.77,-3.58 4.89,-3.43 5,-3.27 5.09,-3.12 5.19,-2.95 5.28,-2.78 5.37,-2.62 5.44,-2.45 5.52,-2.27 5.59,-2.1 5.66,-1.92 5.71,-1.74 5.76,-1.56 5.81,-1.38 5.85,-1.19 5.89,-1.01 5.91,-0.82 5.94,-0.64 5.95,-0.45 5.96,-0.26 5.97,-0.07 z"
       style="fill:#fde725;fill-opacity:0.498;fill-rule:nonzero;stroke:none"
       id="path26" /><path
       d="m 2.32605,190.71394 4.59,1.28 4.55,1.43 4.51,1.57 4.45,1.72 4.4,1.85 4.33,1.99 4.28,2.12 4.2,2.26 4.13,2.39 4.05,2.52 3.97,2.65 3.88,2.77 3.79,2.89 3.7,3.01 3.61,3.13 3.5,3.24 3.4,3.34 3.29,3.45 3.19,3.56 3.06,3.65 2.96,3.75 2.83,3.84 2.71,3.93 2.58,4.01 2.46,4.09 2.32,4.16 2.19,4.24 2.06,4.31 1.92,4.36 1.78,4.43 1.64,4.48 1.5,4.53 1.36,4.57 1.21,4.61 1.06,4.66 0.92,4.68 0.77,4.71 0.62,4.73 0.47,4.74 0.32,4.76 0.17,4.77 0.02,4.77 -0.14,4.77 -0.28,4.76 -0.43,4.75 -0.58,4.74 -0.74,4.71 -0.88,4.69 -1.02,4.66 -1.18,4.62 -1.32,4.59 -1.46,4.54 -1.61,4.49 -1.74,4.44 -1.89,4.38 -2.02,4.32 -2.16,4.26 -2.3,4.18 -2.42,4.11 -2.55,4.03 -2.68,3.95 -2.8,3.86 -2.92,3.77 -3.04,3.68 -3.15,3.58 -3.27,3.48 -3.37,3.37 -3.48,3.27 -3.58,3.15 -3.68,3.04 -3.77,2.92 -3.86,2.8 -3.95,2.68 -4.03,2.55 -4.11,2.42 -4.18,2.3 -4.26,2.15 -4.32,2.03 -4.38,1.88 -4.44,1.75 -4.49,1.61 -4.54,1.46 -4.59,1.32 -4.53,1.15 -0.37,-0.29 -4.57,-3.84 -4.45,-3.99 -4.32,-4.12 -4.19,-4.25 -4.05,-4.39 -3.91,-4.51 -3.77,-4.63 -3.62,-4.75 -3.46,-4.86 -3.32,-4.97 -3.15,-5.07 -2.99,-5.16 -2.83,-5.26 -2.66,-5.35 -2.49,-5.42 -2.32,-5.51 -2.14,-5.57 -1.96,-5.64 -1.79,-5.69 -1.61,-5.75 -1.42,-5.8 -1.24,-5.84 -1.05,-5.88 -0.87,-5.91 -0.68,-5.93 -0.5,-5.95 -0.3,-5.96 -0.12,-5.97 0.07,-5.97 0.26,-5.97 0.45,-5.95 0.63,-5.94 0.82,-5.91 1.01,-5.88 1.2,-5.85 1.37,-5.81 1.56,-5.77 1.75,-5.71 1.92,-5.65 2.1,-5.59 2.27,-5.52 2.45,-5.45 2.62,-5.36 2.78,-5.28 2.95,-5.19 3.12,-5.1 3.27,-4.99 3.43,-4.89 3.58,-4.78 3.73,-4.66 3.88,-4.54 4.01,-4.42 4.16,-4.28 4.29,-4.16 4.41,-4.02 4.55,-3.87 1.52,-1.22 z"
       style="fill:#a47451;fill-opacity:0.498;fill-rule:nonzero;stroke:none"
       id="path28" /><path
       d="m 105.43605,389.98394 -1.74,4.44 -1.89,4.38 -2.02,4.32 -2.16,4.26 -2.3,4.18 -2.42,4.11 -2.55,4.03 -2.68,3.95 -2.8,3.86 -2.92,3.77 -3.04,3.68 -3.15,3.58 -3.27,3.48 -3.37,3.37 -3.48,3.27 -3.58,3.15 -3.68,3.04 -3.77,2.92 -3.86,2.8 -3.95,2.68 -4.03,2.55 -4.11,2.42 -4.18,2.3 -4.26,2.15 -4.32,2.03 -4.38,1.88 -4.44,1.75 -4.49,1.61 -4.54,1.46 -4.59,1.32 -4.62,1.17 -4.66,1.03 -4.69,0.88 -4.71,0.73 -4.74,0.58 -4.75,0.44 -4.76,0.28 -4.77,0.13 -4.77,-0.02 -4.77,-0.17 -4.76,-0.32 -4.75,-0.47 -4.73,-0.62 -4.71,-0.77 -4.68,-0.91 -4.65,-1.07 -4.61,-1.21 -4.58,-1.35 -4.53,-1.5 -4.47,-1.65 -4.43,-1.78 -4.37,-1.92 -4.3,-2.06 -4.24,-2.19 -4.16,-2.32 -4.09,-2.46 -4.01,-2.58 -3.93,-2.71 -3.84,-2.83 -3.75,-2.96 -3.65,-3.06 -3.56,-3.19 -3.45,-3.29 -3.34,-3.4 -3.24,-3.5 -3.13,-3.61 -3.01,-3.7 -2.89,-3.79 -2.77,-3.89 -2.65,-3.97 -2.52,-4.05 -2.39,-4.13 -2.26,-4.2 -2.12,-4.27 -1.99,-4.34 -1.85,-4.39 -1.71,-4.45 -1.57,-4.51 -1.43,-4.55 -1.29,-4.6 -1.13,-4.63 -0.99,-4.67 -0.85,-4.69 -0.69,-4.72 -0.54,-4.74 -0.4,-4.76 -0.24,-4.76 -0.1,-4.77 0.06,-4.77 0.21,-4.77 0.35,-4.75 0.51,-4.75 0.66,-4.72 0.8,-4.7 0.96,-4.68 1.1,-4.64 1.25,-4.61 1.39,-4.56 1.53,-4.52 1.68,-4.46 1.82,-4.41 1.95,-4.35 2.09,-4.29 2.23,-4.22 2.36,-4.15 2.49,-4.07 2.61,-3.99 2.74,-3.9 2.86,-3.82 2.98,-3.73 3.1,-3.63 3.21,-3.52 3.32,-3.43 3.43,-3.32 3.53,-3.21 3.63,-3.1 3.72,-2.98 3.82,-2.86 3.9,-2.74 3.99,-2.61 4.07,-2.49 4.15,-2.36 4.22,-2.23 4.29,-2.09 4.35,-1.95 4.41,-1.82 4.47,-1.68 4.52,-1.53 4.56,-1.39 4.6,-1.25 4.65,-1.1 4.67,-0.95 4.7,-0.81 4.73,-0.66 4.74,-0.5 4.76,-0.36 4.76,-0.21 4.77,-0.05 4.77,0.09 4.77,0.25 4.75,0.39 4.74,0.55 4.72,0.69 4.7,0.84 4.66,0.99 4.64,1.14 4.59,1.28 4.55,1.43 4.51,1.57 4.45,1.72 4.4,1.85 4.33,1.99 4.28,2.12 4.2,2.26 4.13,2.39 4.05,2.52 3.97,2.65 3.88,2.77 3.79,2.89 3.7,3.01 3.61,3.13 3.5,3.24 3.4,3.34 3.29,3.45 3.19,3.56 3.06,3.65 2.96,3.75 2.83,3.84 2.71,3.93 2.58,4.01 2.46,4.09 2.32,4.16 2.19,4.24 2.06,4.31 1.92,4.36 1.78,4.43 1.64,4.48 1.5,4.53 1.36,4.57 1.21,4.61 1.06,4.66 0.92,4.68 0.77,4.71 0.62,4.73 0.47,4.74 0.32,4.76 0.17,4.77 0.02,4.77 -0.14,4.77 -0.28,4.76 -0.43,4.75 -0.58,4.74 -0.74,4.71 -0.88,4.69 -1.02,4.66 -1.18,4.62 -1.32,4.59 -1.46,4.54 -1.61,4.49"
       style="fill:none;stroke:#000000;stroke-width:0.08;stroke-linecap:round;stroke-linejoin:round;stroke-miterlimit:10;stroke-dasharray:none;stroke-opacity:1"
       id="path30" /><path
       d="m 294.92605,403.34394 -2.19,5.56 -2.36,5.48 -2.53,5.41 -2.7,5.32 -2.87,5.24 -3.03,5.14 -3.2,5.04 -3.35,4.94 -3.5,4.84 -3.66,4.72 -3.8,4.6 -3.95,4.48 -4.09,4.35 -4.22,4.22 -4.35,4.09 -4.48,3.95 -4.61,3.8 -4.72,3.66 -4.83,3.5 -4.94,3.35 -5.05,3.2 -5.14,3.03 -5.23,2.87 -5.33,2.7 -5.41,2.53 -5.48,2.36 -5.55,2.19 -5.63,2.01 -5.68,1.83 -5.74,1.65 -5.78,1.47 -5.83,1.29 -5.87,1.1 -5.9,0.91 -5.93,0.73 -5.94,0.54 -5.97,0.36 -5.96,0.16 -5.97,-0.02 -5.97,-0.22 -5.96,-0.4 -5.94,-0.58 -5.92,-0.78 -5.89,-0.96 -5.86,-1.15 -5.82,-1.33 -5.78,-1.52 -5.72,-1.69 -5.67,-1.88 -5.6,-2.05 -5.54,-2.23 -5.47,-2.41 -5.38,-2.57 -5.31,-2.75 -5.21,-2.91 -5.12,-3.07 -5.02,-3.24 -4.91,-3.39 -4.81,-3.54 -4.69,-3.69 -4.57,-3.84 -4.45,-3.99 -4.32,-4.12 -4.19,-4.25 -4.05,-4.39 -3.91,-4.51 -3.77,-4.63 -3.62,-4.75 -3.46,-4.86 -3.32,-4.97 -3.15,-5.07 -2.99,-5.16 -2.83,-5.26 -2.66,-5.35 -2.49,-5.42 -2.32,-5.51 -2.14,-5.57 -1.96,-5.64 -1.79,-5.69 -1.61,-5.75 -1.42,-5.8 -1.24,-5.84 -1.05,-5.88 -0.87,-5.91 -0.68,-5.93 -0.5,-5.95 -0.3,-5.96 -0.12,-5.97 0.07,-5.97 0.26,-5.97 0.45,-5.95 0.63,-5.94 0.82,-5.91 1.01,-5.88 1.2,-5.85 1.37,-5.81 1.56,-5.77 1.75,-5.71 1.92,-5.65 2.1,-5.59 2.27,-5.52 2.45,-5.45 2.62,-5.36 2.78,-5.28 2.95,-5.19 3.12,-5.1 3.27,-4.99 3.43,-4.89 3.58,-4.78 3.73,-4.66 3.88,-4.54 4.01,-4.42 4.16,-4.28 4.29,-4.16 4.41,-4.02 4.55,-3.87 4.66,-3.73 4.77,-3.58 4.89,-3.43 5,-3.27 5.09,-3.12 5.19,-2.95 5.28,-2.78 5.37,-2.62 5.44,-2.45 5.52,-2.27 5.59,-2.1 5.66,-1.92 5.71,-1.74 5.76,-1.56 5.81,-1.38 5.85,-1.19 5.89,-1.01 5.91,-0.82 5.94,-0.64 5.95,-0.45 5.96,-0.26 5.97,-0.07 5.97,0.12 5.97,0.31 5.95,0.49 5.93,0.68 5.91,0.87 5.87,1.06 5.84,1.24 5.8,1.42 5.75,1.61 5.7,1.79 5.64,1.96 5.57,2.14 5.5,2.32 5.43,2.49 5.34,2.66 5.26,2.83 5.17,2.99 5.07,3.16 4.96,3.31 4.87,3.47 4.74,3.61 4.64,3.77 4.51,3.91 4.38,4.06 4.26,4.18 4.12,4.32 3.98,4.45 3.84,4.58 3.69,4.69 3.55,4.8 3.39,4.92 3.23,5.02 3.07,5.11 2.91,5.22 2.75,5.3 2.57,5.39 2.4,5.46 2.23,5.54 2.06,5.61 1.88,5.66 1.69,5.73 1.52,5.77 1.33,5.82 1.15,5.86 0.96,5.9 0.77,5.92 0.59,5.94 0.4,5.96 0.21,5.96 0.03,5.97 -0.17,5.97 -0.35,5.96 -0.54,5.95 -0.73,5.92 -0.92,5.9 -1.1,5.87 -1.29,5.83 -1.47,5.79 -1.65,5.74 -1.83,5.68 -2.01,5.62"
       style="fill:none;stroke:#000000;stroke-width:0.08;stroke-linecap:round;stroke-linejoin:round;stroke-miterlimit:10;stroke-dasharray:none;stroke-opacity:1"
       id="path32" /><text
       transform="scale(1,-1)"
       style="font-style:normal;font-variant:normal;font-weight:normal;font-stretch:normal;font-size:24px;font-family:Calibri;-inkscape-font-specification:'Calibri, Normal';font-variant-ligatures:normal;font-variant-caps:normal;font-variant-numeric:normal;font-variant-east-asian:normal;writing-mode:lr-tb;fill:#000000;fill-opacity:1;fill-rule:nonzero;stroke:none"
       id="text36"
       x="-137.31395"
       y="-360.18936"><tspan
         x="-137.31395"
         y="-360.18936"
         sodipodi:role="line"
         id="tspan34">DE</tspan></text><text
       transform="scale(1,-1)"
       style="font-style:normal;font-variant:normal;font-weight:normal;font-stretch:normal;font-size:24px;font-family:Calibri;-inkscape-font-specification:'Calibri, Normal';font-variant-ligatures:normal;font-variant-caps:normal;font-variant-numeric:normal;font-variant-east-asian:normal;writing-mode:lr-tb;fill:#000000;fill-opacity:1;fill-rule:nonzero;stroke:none"
       id="text40"
       x="-137.85034"
       y="-334.32693"><tspan
         x="-137.85034"
         y="-334.32693"
         sodipodi:role="line"
         id="tspan38">74</tspan></text><text
       transform="scale(1,-1)"
       style="font-style:normal;font-variant:normal;font-weight:normal;font-stretch:normal;font-size:24px;font-family:Calibri;-inkscape-font-specification:'Calibri, Normal';font-variant-ligatures:normal;font-variant-caps:normal;font-variant-numeric:normal;font-variant-east-asian:normal;writing-mode:lr-tb;fill:#000000;fill-opacity:1;fill-rule:nonzero;stroke:none"
       id="text44"
       x="141.28613"
       y="-361.70694"><tspan
         x="141.28613"
         y="-361.70694"
         sodipodi:role="line"
         id="tspan42">Dif.Peak−Calling</tspan></text><text
       transform="scale(1,-1)"
       style="font-style:normal;font-variant:normal;font-weight:normal;font-stretch:normal;font-size:24px;font-family:Calibri;-inkscape-font-specification:'Calibri, Normal';font-variant-ligatures:normal;font-variant-caps:normal;font-variant-numeric:normal;font-variant-east-asian:normal;writing-mode:lr-tb;fill:#000000;fill-opacity:1;fill-rule:nonzero;stroke:none"
       id="text48"
       x="200.70605"
       y="-334.32693"><tspan
         x="200.70605"
         y="-334.32693"
         sodipodi:role="line"
         id="tspan46">168</tspan></text><text
       transform="scale(1,-1)"
       style="font-style:normal;font-variant:normal;font-weight:normal;font-stretch:normal;font-size:24px;font-family:Calibri;-inkscape-font-specification:'Calibri, Normal';font-variant-ligatures:normal;font-variant-caps:normal;font-variant-numeric:normal;font-variant-east-asian:normal;writing-mode:lr-tb;fill:#000000;fill-opacity:1;fill-rule:nonzero;stroke:none"
       id="text52"
       x="15.25605"
       y="-334.32693"><tspan
         x="15.25605"
         y="-334.32693"
         sodipodi:role="line"
         id="tspan50">92</tspan></text><g
       id="g54" /><g
       id="g56" /><g
       id="g58" /><text
       transform="scale(1,-1)"
       style="font-variant:normal;font-weight:normal;font-size:24.0000006px;font-family:Calibri;-inkscape-font-specification:'Calibri, Normal';writing-mode:lr-tb;fill:#000000;fill-opacity:1;fill-rule:nonzero;stroke:none;font-style:normal;font-stretch:normal;font-variant-ligatures:normal;font-variant-caps:normal;font-variant-numeric:normal;font-variant-east-asian:normal;"
       id="text919"
       x="628.82922"
       y="-565.48694"><tspan
         x="628.82922"
         y="-565.48694"
         sodipodi:role="line"
         id="tspan917">MACS2</tspan></text><path
       d="m 489.41925,262.98694 2.39,0.08 2.38,0.15 2.38,0.23 2.37,0.31 2.36,0.37 0.97,0.19 -0.56,1.44 -2.2,6.22 -2.01,6.29 -1.8,6.34 -1.61,6.4 -1.4,6.45 -1.2,6.49 -0.99,6.53 -0.78,6.55 -0.58,6.57 -0.37,6.59 -0.17,6.6 0.05,6.6 0.25,6.59 0.47,6.58 0.67,6.57 0.87,6.54 1.08,6.51 1.29,6.47 1.49,6.43 1.7,6.38 1.89,6.32 2.09,6.26 1.83,4.92 -2.3,0.4 -2.37,0.34 -2.37,0.26 -2.38,0.19 -2.39,0.11 -2.39,0.03 -2.39,-0.04 -2.38,-0.11 -2.38,-0.19 -2.38,-0.27 -2.36,-0.34 -2.35,-0.41 -2.34,-0.49 -2.32,-0.57 -2.3,-0.63 -2.29,-0.71 -2.25,-0.78 -2.24,-0.85 -2.2,-0.92 -2.17,-0.99 -2.14,-1.06 -2.11,-1.12 -2.07,-1.19 -2.03,-1.26 -2,-1.32 -1.94,-1.38 -1.91,-1.44 -1.86,-1.5 -1.81,-1.56 -1.75,-1.62 -1.71,-1.67 -1.66,-1.72 -1.59,-1.78 -1.55,-1.82 -1.48,-1.87 -1.42,-1.92 -1.36,-1.96 -1.3,-2.01 -1.24,-2.04 -1.17,-2.09 -1.1,-2.11 -1.04,-2.16 -0.97,-2.18 -0.9,-2.21 -0.83,-2.24 -0.75,-2.27 -0.69,-2.29 -0.61,-2.3 -0.54,-2.33 -0.47,-2.34 -0.39,-2.36 -0.32,-2.37 -0.24,-2.37 -0.17,-2.39 -0.09,-2.38 -0.02,-2.39 0.06,-2.39 0.14,-2.38 0.21,-2.38 0.28,-2.38 0.36,-2.36 0.43,-2.35 0.51,-2.33 0.58,-2.32 0.66,-2.29 0.72,-2.28 0.8,-2.25 0.87,-2.23 0.94,-2.19 1,-2.17 1.08,-2.13 1.14,-2.1 1.21,-2.06 1.27,-2.02 1.33,-1.99 1.4,-1.93 1.46,-1.9 1.51,-1.84 1.58,-1.8 1.63,-1.74 1.68,-1.7 1.74,-1.64 1.78,-1.58 1.84,-1.53 1.88,-1.47 1.93,-1.41 1.98,-1.34 2.01,-1.29 2.05,-1.22 2.1,-1.15 2.12,-1.09 2.16,-1.02 2.19,-0.95 2.22,-0.88 2.25,-0.81 2.27,-0.74 2.3,-0.67 2.31,-0.59 2.33,-0.52 2.35,-0.45 2.36,-0.37 2.36,-0.3 2.38,-0.23 2.39,-0.15 2.38,-0.07 z"
       style="fill:#440154;fill-opacity:0.498;fill-rule:nonzero;stroke:none"
       id="path923" /><path
       d="m 701.10925,129.65694 6.59,0.21 6.59,0.42 6.57,0.63 6.54,0.84 6.52,1.04 6.48,1.25 6.44,1.46 6.38,1.65 6.34,1.86 6.27,2.05 6.2,2.26 6.13,2.44 6.05,2.64 5.96,2.83 5.87,3.02 5.77,3.19 5.67,3.38 5.56,3.56 5.44,3.73 5.32,3.9 5.2,4.07 5.07,4.23 4.93,4.39 4.78,4.54 4.65,4.68 4.49,4.84 4.34,4.97 4.18,5.11 4.01,5.23 3.85,5.37 3.68,5.47 3.5,5.6 3.33,5.7 3.14,5.8 2.96,5.9 2.77,5.99 2.57,6.07 2.39,6.16 2.19,6.22 2,6.29 1.79,6.35 1.59,6.41 1.39,6.45 1.19,6.49 0.98,6.52 0.77,6.56 0.57,6.57 0.35,6.59 0.15,6.6 -0.05,6.6 -0.27,6.59 -0.48,6.58 -0.68,6.57 -0.89,6.54 -1.09,6.5 -1.3,6.47 -1.51,6.43 -1.7,6.37 -1.91,6.32 -2.1,6.26 -2.3,6.18 -2.5,6.11 -2.69,6.03 -2.87,5.94 -3.06,5.84 -3.25,5.75 -3.42,5.64 -3.6,5.53 -3.78,5.41 -3.94,5.29 -4.11,5.17 -4.27,5.03 -4.42,4.9 -4.58,4.75 -4.72,4.61 -4.87,4.45 -5.01,4.3 -5.14,4.14 -5.27,3.97 -5.39,3.81 -5.51,3.63 -5.62,3.46 -5.72,3.28 -5.83,3.1 -5.92,2.91 -6.02,2.72 -6.09,2.53 -6.17,2.34 -6.24,2.14 -6.31,1.94 -6.36,1.75 -6.42,1.54 -6.46,1.34 -6.5,1.13 -6.54,0.93 -6.56,0.72 -6.57,0.52 -6.6,0.3 -6.59,0.1 -6.6,-0.11 -6.59,-0.32 -6.58,-0.53 -6.56,-0.73 -6.53,-0.94 -6.5,-1.15 -6.46,-1.35 -6.41,-1.55 -6.36,-1.76 -6.31,-1.95 -6.23,-2.16 -6.17,-2.35 -6.09,-2.54 -6.01,-2.74 -5.91,-2.92 -5.82,-3.11 -5.72,-3.29 -5.62,-3.47 -5.5,-3.64 -5.38,-3.82 -5.26,-3.98 -5.14,-4.15 -4.99,-4.31 -4.86,-4.46 -4.72,-4.62 -4.57,-4.76 -4.41,-4.9 -4.26,-5.04 -4.1,-5.17 -3.93,-5.3 -3.77,-5.42 -3.59,-5.54 -3.41,-5.65 -3.23,-5.75 -3.06,-5.85 -2.86,-5.95 -2.67,-6.03 -2.49,-6.11 -0.46,-1.27 0.05,-0.01 2.34,-0.48 2.32,-0.56 2.31,-0.63 2.28,-0.7 2.26,-0.78 2.23,-0.85 2.21,-0.91 2.17,-0.99 2.15,-1.05 2.11,-1.12 2.07,-1.19 2.03,-1.25 2,-1.32 1.95,-1.37 1.91,-1.44 1.86,-1.5 1.81,-1.56 1.76,-1.61 1.71,-1.67 1.66,-1.72 1.6,-1.77 1.55,-1.82 1.48,-1.87 1.43,-1.91 1.37,-1.96 1.3,-2.01 1.24,-2.04 1.17,-2.08 1.11,-2.11 1.04,-2.15 0.97,-2.18 0.91,-2.22 0.83,-2.23 0.76,-2.27 0.69,-2.29 0.62,-2.3 0.54,-2.33 0.47,-2.34 0.4,-2.36 0.32,-2.36 0.25,-2.38 0.17,-2.38 0.1,-2.39 0.02,-2.39 -0.06,-2.38 -0.12,-2.39 -0.21,-2.38 -0.28,-2.37 -0.35,-2.36 -0.43,-2.35 -0.51,-2.34 -0.57,-2.32 -0.65,-2.29 -0.72,-2.28 -0.8,-2.26 -0.86,-2.22 -0.93,-2.2 -1.01,-2.17 -1.07,-2.13 -1.13,-2.1 -1.21,-2.07 -1.27,-2.02 -1.33,-1.99 -1.39,-1.94 -1.45,-1.89 -1.52,-1.85 -1.57,-1.8 -1.62,-1.75 -1.68,-1.7 -1.74,-1.64 -1.78,-1.59 -1.83,-1.53 -1.89,-1.47 -1.92,-1.41 -1.97,-1.35 -2.01,-1.29 -2.06,-1.22 -2.09,-1.16 -2.12,-1.09 -2.16,-1.03 -2.19,-0.95 -2.22,-0.89 -2.24,-0.81 -2.27,-0.75 -2.29,-0.67 -2.31,-0.6 -2.33,-0.52 -1.38,-0.27 1.84,-4.71 2.59,-6.07 2.78,-5.98 2.97,-5.9 3.16,-5.79 3.33,-5.7 3.51,-5.58 3.69,-5.48 3.86,-5.35 4.03,-5.23 4.19,-5.1 4.34,-4.96 4.51,-4.83 4.65,-4.68 4.8,-4.53 4.93,-4.37 5.08,-4.22 5.2,-4.06 5.33,-3.89 5.45,-3.72 5.57,-3.55 5.67,-3.37 5.78,-3.18 5.88,-3.01 5.96,-2.82 6.06,-2.62 6.13,-2.44 6.21,-2.24 6.27,-2.04 6.34,-1.84 6.39,-1.65 6.44,-1.44 6.48,-1.23 6.52,-1.04 6.55,-0.82 6.57,-0.62 6.58,-0.41 6.6,-0.2 z"
       style="fill:#fde725;fill-opacity:0.498;fill-rule:nonzero;stroke:none"
       id="path925" /><path
       d="m 503.64925,264.58694 2.33,0.52 2.31,0.6 2.29,0.67 2.27,0.75 2.24,0.81 2.22,0.89 2.19,0.95 2.16,1.03 2.12,1.09 2.09,1.16 2.06,1.22 2.01,1.29 1.97,1.35 1.92,1.41 1.89,1.47 1.83,1.53 1.78,1.59 1.74,1.64 1.68,1.7 1.62,1.75 1.57,1.8 1.52,1.85 1.45,1.89 1.39,1.94 1.33,1.99 1.27,2.02 1.21,2.07 1.13,2.1 1.07,2.13 1.01,2.17 0.93,2.2 0.86,2.22 0.8,2.26 0.72,2.28 0.65,2.29 0.57,2.32 0.51,2.34 0.43,2.35 0.35,2.36 0.28,2.37 0.21,2.38 0.12,2.39 0.06,2.38 -0.02,2.39 -0.1,2.39 -0.17,2.38 -0.25,2.38 -0.32,2.36 -0.4,2.36 -0.47,2.34 -0.54,2.33 -0.62,2.3 -0.69,2.29 -0.76,2.27 -0.83,2.23 -0.91,2.22 -0.97,2.18 -1.04,2.15 -1.11,2.11 -1.17,2.08 -1.24,2.04 -1.3,2.01 -1.37,1.96 -1.43,1.91 -1.48,1.87 -1.55,1.82 -1.6,1.77 -1.66,1.72 -1.71,1.67 -1.76,1.61 -1.81,1.56 -1.86,1.5 -1.91,1.44 -1.95,1.37 -2,1.32 -2.03,1.25 -2.07,1.19 -2.11,1.12 -2.15,1.05 -2.17,0.99 -2.21,0.91 -2.23,0.85 -2.26,0.78 -2.28,0.7 -2.31,0.63 -2.32,0.56 -2.34,0.48 -0.05,0.01 -1.83,-4.92 -2.09,-6.26 -1.89,-6.32 -1.7,-6.38 -1.49,-6.43 -1.29,-6.47 -1.08,-6.51 -0.87,-6.54 -0.67,-6.57 -0.47,-6.58 -0.25,-6.59 -0.05,-6.6 0.17,-6.6 0.37,-6.59 0.58,-6.57 0.78,-6.55 0.99,-6.53 1.2,-6.49 1.4,-6.45 1.61,-6.4 1.8,-6.34 2.01,-6.29 2.2,-6.22 0.56,-1.44 z"
       style="fill:#a47451;fill-opacity:0.498;fill-rule:nonzero;stroke:none"
       id="path927" /><path
       d="m 439.66925,396.71694 -1.81,-1.56 -1.75,-1.62 -1.71,-1.67 -1.66,-1.72 -1.59,-1.78 -1.55,-1.82 -1.48,-1.87 -1.42,-1.92 -1.36,-1.96 -1.3,-2.01 -1.24,-2.04 -1.17,-2.09 -1.1,-2.11 -1.04,-2.16 -0.97,-2.18 -0.9,-2.21 -0.83,-2.24 -0.75,-2.27 -0.69,-2.29 -0.61,-2.3 -0.54,-2.33 -0.47,-2.34 -0.39,-2.36 -0.32,-2.37 -0.24,-2.37 -0.17,-2.39 -0.09,-2.38 -0.02,-2.39 0.06,-2.39 0.14,-2.38 0.21,-2.38 0.28,-2.38 0.36,-2.36 0.43,-2.35 0.51,-2.33 0.58,-2.32 0.66,-2.29 0.72,-2.28 0.8,-2.25 0.87,-2.23 0.94,-2.19 1,-2.17 1.08,-2.13 1.14,-2.1 1.21,-2.06 1.27,-2.02 1.33,-1.99 1.4,-1.93 1.46,-1.9 1.51,-1.84 1.58,-1.8 1.63,-1.74 1.68,-1.7 1.74,-1.64 1.78,-1.58 1.84,-1.53 1.88,-1.47 1.93,-1.41 1.98,-1.34 2.01,-1.29 2.05,-1.22 2.1,-1.15 2.12,-1.09 2.16,-1.02 2.19,-0.95 2.22,-0.88 2.25,-0.81 2.27,-0.74 2.3,-0.67 2.31,-0.59 2.33,-0.52 2.35,-0.45 2.36,-0.37 2.36,-0.3 2.38,-0.23 2.39,-0.15 2.38,-0.07 h 2.39 l 2.39,0.08 2.38,0.15 2.38,0.23 2.37,0.31 2.36,0.37 2.35,0.46 2.33,0.52 2.31,0.6 2.29,0.67 2.27,0.75 2.24,0.81 2.22,0.89 2.19,0.95 2.16,1.03 2.12,1.09 2.09,1.16 2.06,1.22 2.01,1.29 1.97,1.35 1.92,1.41 1.89,1.47 1.83,1.53 1.78,1.59 1.74,1.64 1.68,1.7 1.62,1.75 1.57,1.8 1.52,1.85 1.45,1.89 1.39,1.94 1.33,1.99 1.27,2.02 1.21,2.07 1.13,2.1 1.07,2.13 1.01,2.17 0.93,2.2 0.86,2.22 0.8,2.26 0.72,2.28 0.65,2.29 0.57,2.32 0.51,2.34 0.43,2.35 0.35,2.36 0.28,2.37 0.21,2.38 0.12,2.39 0.06,2.38 -0.02,2.39 -0.1,2.39 -0.17,2.38 -0.25,2.38 -0.32,2.36 -0.4,2.36 -0.47,2.34 -0.54,2.33 -0.62,2.3 -0.69,2.29 -0.76,2.27 -0.83,2.23 -0.91,2.22 -0.97,2.18 -1.04,2.15 -1.11,2.11 -1.17,2.08 -1.24,2.04 -1.3,2.01 -1.37,1.96 -1.43,1.91 -1.48,1.87 -1.55,1.82 -1.6,1.77 -1.66,1.72 -1.71,1.67 -1.76,1.61 -1.81,1.56 -1.86,1.5 -1.91,1.44 -1.95,1.37 -2,1.32 -2.03,1.25 -2.07,1.19 -2.11,1.12 -2.15,1.05 -2.17,0.99 -2.21,0.91 -2.23,0.85 -2.26,0.78 -2.28,0.7 -2.31,0.63 -2.32,0.56 -2.34,0.48 -2.35,0.41 -2.37,0.34 -2.37,0.26 -2.38,0.19 -2.39,0.11 -2.39,0.03 -2.39,-0.04 -2.38,-0.11 -2.38,-0.19 -2.38,-0.27 -2.36,-0.34 -2.35,-0.41 -2.34,-0.49 -2.32,-0.57 -2.3,-0.63 -2.29,-0.71 -2.25,-0.78 -2.24,-0.85 -2.2,-0.92 -2.17,-0.99 -2.14,-1.06 -2.11,-1.12 -2.07,-1.19 -2.03,-1.26 -2,-1.32 -1.94,-1.38 -1.91,-1.44 -1.86,-1.5"
       style="fill:none;stroke:#000000;stroke-width:0.08;stroke-linecap:round;stroke-linejoin:round;stroke-miterlimit:10;stroke-dasharray:none;stroke-opacity:1"
       id="path929" /><path
       d="m 563.65925,499.08694 -4.99,-4.31 -4.86,-4.46 -4.72,-4.62 -4.57,-4.76 -4.41,-4.9 -4.26,-5.04 -4.1,-5.17 -3.93,-5.3 -3.77,-5.42 -3.59,-5.54 -3.41,-5.65 -3.23,-5.75 -3.06,-5.85 -2.86,-5.95 -2.67,-6.03 -2.49,-6.11 -2.29,-6.19 -2.09,-6.26 -1.89,-6.32 -1.7,-6.38 -1.49,-6.43 -1.29,-6.47 -1.08,-6.51 -0.87,-6.54 -0.67,-6.57 -0.47,-6.58 -0.25,-6.59 -0.05,-6.6 0.17,-6.6 0.37,-6.59 0.58,-6.57 0.78,-6.55 0.99,-6.53 1.2,-6.49 1.4,-6.45 1.61,-6.4 1.8,-6.34 2.01,-6.29 2.2,-6.22 2.4,-6.15 2.59,-6.07 2.78,-5.98 2.97,-5.9 3.16,-5.79 3.33,-5.7 3.51,-5.58 3.69,-5.48 3.86,-5.35 4.03,-5.23 4.19,-5.1 4.34,-4.96 4.51,-4.83 4.65,-4.68 4.8,-4.53 4.93,-4.37 5.08,-4.22 5.2,-4.06 5.33,-3.89 5.45,-3.72 5.57,-3.55 5.67,-3.37 5.78,-3.18 5.88,-3.01 5.96,-2.82 6.06,-2.62 6.13,-2.44 6.21,-2.24 6.27,-2.04 6.34,-1.84 6.39,-1.65 6.44,-1.44 6.48,-1.23 6.52,-1.04 6.55,-0.82 6.57,-0.62 6.58,-0.41 6.6,-0.2 6.6,0.01 6.59,0.21 6.59,0.42 6.57,0.63 6.54,0.84 6.52,1.04 6.48,1.25 6.44,1.46 6.38,1.65 6.34,1.86 6.27,2.05 6.2,2.26 6.13,2.44 6.05,2.64 5.96,2.83 5.87,3.02 5.77,3.19 5.67,3.38 5.56,3.56 5.44,3.73 5.32,3.9 5.2,4.07 5.07,4.23 4.93,4.39 4.78,4.54 4.65,4.68 4.49,4.84 4.34,4.97 4.18,5.11 4.01,5.23 3.85,5.37 3.68,5.47 3.5,5.6 3.33,5.7 3.14,5.8 2.96,5.9 2.77,5.99 2.57,6.07 2.39,6.16 2.19,6.22 2,6.29 1.79,6.35 1.59,6.41 1.39,6.45 1.19,6.49 0.98,6.52 0.77,6.56 0.57,6.57 0.35,6.59 0.15,6.6 -0.05,6.6 -0.27,6.59 -0.48,6.58 -0.68,6.57 -0.89,6.54 -1.09,6.5 -1.3,6.47 -1.51,6.43 -1.7,6.37 -1.91,6.32 -2.1,6.26 -2.3,6.18 -2.5,6.11 -2.69,6.03 -2.87,5.94 -3.06,5.84 -3.25,5.75 -3.42,5.64 -3.6,5.53 -3.78,5.41 -3.94,5.29 -4.11,5.17 -4.27,5.03 -4.42,4.9 -4.58,4.75 -4.72,4.61 -4.87,4.45 -5.01,4.3 -5.14,4.14 -5.27,3.97 -5.39,3.81 -5.51,3.63 -5.62,3.46 -5.72,3.28 -5.83,3.1 -5.92,2.91 -6.02,2.72 -6.09,2.53 -6.17,2.34 -6.24,2.14 -6.31,1.94 -6.36,1.75 -6.42,1.54 -6.46,1.34 -6.5,1.13 -6.54,0.93 -6.56,0.72 -6.57,0.52 -6.6,0.3 -6.59,0.1 -6.6,-0.11 -6.59,-0.32 -6.58,-0.53 -6.56,-0.73 -6.53,-0.94 -6.5,-1.15 -6.46,-1.35 -6.41,-1.55 -6.36,-1.76 -6.31,-1.95 -6.23,-2.16 -6.17,-2.35 -6.09,-2.54 -6.01,-2.74 -5.91,-2.92 -5.82,-3.11 -5.72,-3.29 -5.62,-3.47 -5.5,-3.64 -5.38,-3.82 -5.26,-3.98 -5.14,-4.15"
       style="fill:none;stroke:#000000;stroke-width:0.08;stroke-linecap:round;stroke-linejoin:round;stroke-miterlimit:10;stroke-dasharray:none;stroke-opacity:1"
       id="path931" /><text
       transform="scale(1,-1)"
       style="font-variant:normal;font-weight:normal;font-size:24.0000006px;font-family:Calibri;-inkscape-font-specification:'Calibri, Normal';writing-mode:lr-tb;fill:#000000;fill-opacity:1;fill-rule:nonzero;stroke:none;font-style:normal;font-stretch:normal;font-variant-ligatures:normal;font-variant-caps:normal;font-variant-numeric:normal;font-variant-east-asian:normal;"
       id="text935"
       x="443.43924"
       y="-357.21695"><tspan
         x="443.43924"
         y="-357.21695"
         sodipodi:role="line"
         id="tspan933">DE</tspan></text><text
       transform="scale(1,-1)"
       style="font-style:normal;font-variant:normal;font-weight:normal;font-stretch:normal;font-size:24px;font-family:Calibri;-inkscape-font-specification:'Calibri, Normal';font-variant-ligatures:normal;font-variant-caps:normal;font-variant-numeric:normal;font-variant-east-asian:normal;writing-mode:lr-tb;fill:#000000;fill-opacity:1;fill-rule:nonzero;stroke:none"
       id="text939"
       x="445.10925"
       y="-334.32693"><tspan
         x="445.10925"
         y="-334.32693"
         sodipodi:role="line"
         id="tspan937">90</tspan></text><text
       transform="scale(1,-1)"
       style="font-style:normal;font-variant:normal;font-weight:normal;font-stretch:normal;font-size:24px;font-family:Calibri;-inkscape-font-specification:'Calibri, Normal';font-variant-ligatures:normal;font-variant-caps:normal;font-variant-numeric:normal;font-variant-east-asian:normal;writing-mode:lr-tb;fill:#000000;fill-opacity:1;fill-rule:nonzero;stroke:none"
       id="text943"
       x="669.2049"
       y="-361.70694"><tspan
         x="669.2049"
         y="-361.70694"
         sodipodi:role="line"
         id="tspan941">Dif.Peak−Calling</tspan></text><text
       transform="scale(1,-1)"
       style="font-style:normal;font-variant:normal;font-weight:normal;font-stretch:normal;font-size:24px;font-family:Calibri;-inkscape-font-specification:'Calibri, Normal';font-variant-ligatures:normal;font-variant-caps:normal;font-variant-numeric:normal;font-variant-east-asian:normal;writing-mode:lr-tb;fill:#000000;fill-opacity:1;fill-rule:nonzero;stroke:none"
       id="text947"
       x="722.68927"
       y="-334.32693"><tspan
         x="722.68927"
         y="-334.32693"
         sodipodi:role="line"
         id="tspan945">1191</tspan></text><text
       transform="scale(1,-1)"
       style="font-style:normal;font-variant:normal;font-weight:normal;font-stretch:normal;font-size:24px;font-family:Calibri;-inkscape-font-specification:'Calibri, Normal';font-variant-ligatures:normal;font-variant-caps:normal;font-variant-numeric:normal;font-variant-east-asian:normal;writing-mode:lr-tb;fill:#000000;fill-opacity:1;fill-rule:nonzero;stroke:none"
       id="text951"
       x="519.52924"
       y="-334.33279"><tspan
         x="519.52924"
         y="-334.33279"
         sodipodi:role="line"
         id="tspan949">76</tspan></text><text
       transform="scale(1,-1)"
       style="font-variant:normal;font-weight:normal;font-size:24.0000006px;font-family:Calibri;-inkscape-font-specification:'Calibri, Normal';writing-mode:lr-tb;fill:#000000;fill-opacity:1;fill-rule:nonzero;stroke:none;font-style:normal;font-stretch:normal;font-variant-ligatures:normal;font-variant-caps:normal;font-variant-numeric:normal;font-variant-east-asian:normal;"
       id="text1002"
       x="1231.5884"
       y="-504.55695"><tspan
         x="1231.5884"
         y="-504.55695"
         sodipodi:role="line"
         id="tspan1000">MANorm</tspan></text><path
       d="m 1173.3984,189.41694 4.71,0.2 4.7,0.34 4.69,0.49 4.66,0.65 4.65,0.78 4.62,0.94 4.59,1.08 4.55,1.22 4.51,1.37 4.46,1.51 4.42,1.65 4.36,1.79 4.3,1.92 4.24,2.06 4.17,2.19 4.1,2.33 4.03,2.45 3.94,2.57 3.87,2.7 3.77,2.82 3.69,2.94 3.59,3.06 3.49,3.16 3.39,3.28 3.28,3.37 3.18,3.49 3.06,3.58 2.95,3.67 0.43,0.56 -1.81,1.9 -2.77,3.1 -2.66,3.19 -2.57,3.27 -2.46,3.35 -2.35,3.42 -2.24,3.5 -2.14,3.56 -2.02,3.63 -1.9,3.7 -1.79,3.75 -1.66,3.8 -1.55,3.86 -1.42,3.9 -1.3,3.95 -1.17,3.98 -1.05,4.02 -0.92,4.05 -0.79,4.08 -0.67,4.1 -0.53,4.12 -0.4,4.14 -0.27,4.15 -0.14,4.15 -0.01,4.15 0.12,4.15 0.25,4.15 0.38,4.14 0.52,4.12 0.64,4.11 0.77,4.08 0.91,4.05 1.03,4.03 1.15,3.99 1.28,3.95 1.41,3.91 1.52,3.86 1.65,3.82 1.77,3.76 1.89,3.7 2,3.64 2.12,3.57 2.22,3.51 2.34,3.43 2.45,3.36 2.55,3.28 2.65,3.2 2.75,3.11 2.21,2.35 -0.84,1.11 -2.97,3.66 -3.08,3.56 -3.19,3.47 -3.3,3.37 -3.41,3.25 -3.5,3.15 -3.61,3.04 -3.69,2.92 -3.79,2.8 -3.88,2.69 -3.96,2.56 -4.03,2.43 -4.11,2.3 -4.19,2.18 -4.24,2.03 -4.31,1.91 -4.37,1.77 -4.43,1.63 -4.47,1.48 -4.51,1.35 -4.56,1.2 -4.59,1.06 -4.63,0.92 -4.65,0.76 -4.67,0.62 -4.69,0.47 -4.7,0.33 -4.71,0.17 -4.71,0.03 -4.71,-0.12 -4.71,-0.27 -4.69,-0.42 -4.68,-0.57 -4.66,-0.72 -4.63,-0.86 -4.61,-1 -4.57,-1.16 -4.53,-1.29 -4.48,-1.44 -4.45,-1.58 -4.38,-1.72 -4.34,-1.86 -4.27,-1.99 -4.2,-2.12 -4.14,-2.26 -4.06,-2.39 -3.99,-2.51 -3.9,-2.64 -3.82,-2.76 -3.73,-2.88 -3.64,-3 -3.54,-3.11 -3.44,-3.22 -3.34,-3.33 -3.23,-3.43 -3.12,-3.53 -3.01,-3.63 -2.89,-3.72 -2.78,-3.81 -2.65,-3.89 -2.53,-3.98 -2.4,-4.06 -2.27,-4.13 -2.14,-4.19 -2,-4.27 -1.88,-4.32 -1.73,-4.39 -1.59,-4.43 -1.46,-4.49 -1.31,-4.52 -1.16,-4.57 -1.03,-4.6 -0.87,-4.63 -0.73,-4.66 -0.59,-4.67 -0.43,-4.69 -0.29,-4.71 -0.14,-4.71 0.02,-4.71 0.16,-4.71 0.3,-4.71 0.46,-4.69 0.6,-4.67 0.76,-4.65 0.89,-4.63 1.05,-4.59 1.19,-4.57 1.33,-4.52 1.47,-4.47 1.62,-4.43 1.75,-4.37 1.89,-4.32 2.03,-4.26 2.15,-4.19 2.3,-4.11 2.41,-4.05 2.55,-3.97 2.67,-3.88 2.79,-3.8 2.91,-3.7 3.03,-3.62 3.13,-3.51 3.25,-3.42 3.35,-3.31 3.46,-3.21 3.55,-3.09 3.66,-2.98 3.74,-2.86 3.83,-2.75 3.92,-2.62 4,-2.49 4.07,-2.37 4.15,-2.24 4.21,-2.11 4.28,-1.97 4.34,-1.83 4.4,-1.7 4.45,-1.56 4.49,-1.42 4.54,-1.27 4.57,-1.14 4.61,-0.98 4.64,-0.84 4.66,-0.7 4.68,-0.54 4.7,-0.4 4.71,-0.25 4.71,-0.1 z"
       style="fill:#440154;fill-opacity:0.498;fill-rule:nonzero;stroke:none"
       id="path1006" /><path
       d="m 1386.1984,207.09694 4.15,0.17 4.15,0.3 4.13,0.44 4.11,0.56 4.1,0.7 4.07,0.82 4.04,0.95 4.02,1.08 3.97,1.21 3.94,1.33 3.89,1.45 3.84,1.58 3.8,1.7 3.73,1.81 3.68,1.93 3.62,2.05 3.54,2.16 3.48,2.27 3.41,2.38 3.33,2.49 3.24,2.59 3.17,2.69 3.08,2.79 2.99,2.89 2.89,2.98 2.8,3.07 2.7,3.15 2.6,3.24 2.5,3.32 2.39,3.4 2.29,3.47 2.17,3.54 2.06,3.61 1.94,3.67 1.83,3.73 1.71,3.79 1.59,3.84 1.46,3.89 1.35,3.93 1.22,3.97 1.09,4.01 0.96,4.04 0.84,4.07 0.71,4.09 0.58,4.11 0.45,4.13 0.32,4.15 0.18,4.15 0.06,4.15 -0.08,4.16 -0.2,4.14 -0.34,4.15 -0.47,4.12 -0.6,4.11 -0.72,4.1 -0.86,4.06 -0.98,4.04 -1.11,4 -1.24,3.97 -1.36,3.92 -1.49,3.88 -1.6,3.83 -1.73,3.78 -1.84,3.72 -1.97,3.67 -2.07,3.6 -2.19,3.53 -2.3,3.46 -2.41,3.38 -2.51,3.31 -2.62,3.23 -2.71,3.14 -2.82,3.06 -2.91,2.96 -3,2.88 -3.09,2.77 -3.18,2.68 -3.26,2.57 -3.33,2.48 -3.42,2.36 -3.49,2.26 -3.56,2.14 -3.62,2.03 -3.69,1.92 -3.74,1.8 -3.8,1.67 -3.86,1.56 -3.89,1.44 -3.95,1.31 -3.98,1.19 -4.01,1.06 -4.05,0.93 -4.08,0.81 -4.1,0.67 -4.12,0.55 -4.13,0.42 -4.14,0.28 -4.16,0.15 -4.15,0.03 -4.15,-0.11 -4.15,-0.24 -4.14,-0.37 -4.12,-0.5 -4.11,-0.63 -4.08,-0.76 -4.06,-0.89 -4.03,-1.01 -4,-1.15 -3.95,-1.26 -3.92,-1.4 -3.86,-1.51 -3.82,-1.64 -3.77,-1.75 -3.71,-1.88 -3.64,-1.99 -3.58,-2.1 -3.52,-2.22 -3.44,-2.32 -3.37,-2.44 -3.29,-2.54 -3.2,-2.64 -3.12,-2.74 -3.04,-2.84 -2.94,-2.93 -0.64,-0.68 2.01,-2.64 2.73,-3.85 2.61,-3.92 2.48,-4.01 2.36,-4.08 2.22,-4.15 2.1,-4.23 1.95,-4.28 1.83,-4.35 1.68,-4.4 1.54,-4.45 1.41,-4.5 1.26,-4.54 1.11,-4.58 0.98,-4.61 0.82,-4.64 0.68,-4.67 0.53,-4.68 0.38,-4.7 0.24,-4.71 0.08,-4.71 -0.06,-4.71 -0.22,-4.71 -0.36,-4.7 -0.51,-4.68 -0.65,-4.67 -0.81,-4.64 -0.95,-4.62 -1.09,-4.58 -1.24,-4.55 -1.38,-4.51 -1.53,-4.46 -1.66,-4.4 -1.8,-4.36 -1.94,-4.3 -2.07,-4.23 -2.21,-4.16 -2.33,-4.1 -2.47,-4.01 -2.59,-3.94 -2.71,-3.85 -2.41,-3.21 1.05,-1.11 2.96,-2.92 3.05,-2.82 3.13,-2.73 3.22,-2.62 3.3,-2.53 3.38,-2.42 3.45,-2.31 3.52,-2.2 3.6,-2.08 3.65,-1.98 3.72,-1.85 3.77,-1.74 3.83,-1.62 3.87,-1.5 3.92,-1.37 3.97,-1.25 4,-1.13 4.03,-0.99 4.06,-0.87 4.09,-0.74 4.11,-0.62 4.12,-0.48 4.14,-0.35 4.15,-0.22 4.16,-0.09 z"
       style="fill:#fde725;fill-opacity:0.498;fill-rule:nonzero;stroke:none"
       id="path1008" /><path
       d="m 1290.2084,250.79694 2.71,3.85 2.59,3.94 2.47,4.01 2.33,4.1 2.21,4.16 2.07,4.23 1.94,4.3 1.8,4.36 1.66,4.4 1.53,4.46 1.38,4.51 1.24,4.55 1.09,4.58 0.95,4.62 0.81,4.64 0.65,4.67 0.51,4.68 0.36,4.7 0.22,4.71 0.06,4.71 -0.08,4.71 -0.24,4.71 -0.38,4.7 -0.53,4.68 -0.68,4.67 -0.82,4.64 -0.98,4.61 -1.11,4.58 -1.26,4.54 -1.41,4.5 -1.54,4.45 -1.68,4.4 -1.83,4.35 -1.95,4.28 -2.1,4.23 -2.22,4.15 -2.36,4.08 -2.48,4.01 -2.61,3.92 -2.73,3.85 -2.01,2.64 -2.21,-2.35 -2.75,-3.11 -2.65,-3.2 -2.55,-3.28 -2.45,-3.36 -2.34,-3.43 -2.22,-3.51 -2.12,-3.57 -2,-3.64 -1.89,-3.7 -1.77,-3.76 -1.65,-3.82 -1.52,-3.86 -1.41,-3.91 -1.28,-3.95 -1.15,-3.99 -1.03,-4.03 -0.91,-4.05 -0.77,-4.08 -0.64,-4.11 -0.52,-4.12 -0.38,-4.14 -0.25,-4.15 -0.12,-4.15 0.01,-4.15 0.14,-4.15 0.27,-4.15 0.4,-4.14 0.53,-4.12 0.67,-4.1 0.79,-4.08 0.92,-4.05 1.05,-4.02 1.17,-3.98 1.3,-3.95 1.42,-3.9 1.55,-3.86 1.66,-3.8 1.79,-3.75 1.9,-3.7 2.02,-3.63 2.14,-3.56 2.24,-3.5 2.35,-3.42 2.46,-3.35 2.57,-3.27 2.66,-3.19 2.77,-3.1 1.81,-1.9 z"
       style="fill:#a47451;fill-opacity:0.498;fill-rule:nonzero;stroke:none"
       id="path1010" /><path
       d="m 1158.5784,487.50694 -4.69,-0.42 -4.68,-0.57 -4.66,-0.72 -4.63,-0.86 -4.61,-1 -4.57,-1.16 -4.53,-1.29 -4.48,-1.44 -4.45,-1.58 -4.38,-1.72 -4.34,-1.86 -4.27,-1.99 -4.2,-2.12 -4.14,-2.26 -4.06,-2.39 -3.99,-2.51 -3.9,-2.64 -3.82,-2.76 -3.73,-2.88 -3.64,-3 -3.54,-3.11 -3.44,-3.22 -3.34,-3.33 -3.23,-3.43 -3.12,-3.53 -3.01,-3.63 -2.89,-3.72 -2.78,-3.81 -2.65,-3.89 -2.53,-3.98 -2.4,-4.06 -2.27,-4.13 -2.14,-4.19 -2,-4.27 -1.88,-4.32 -1.73,-4.39 -1.59,-4.43 -1.46,-4.49 -1.31,-4.52 -1.16,-4.57 -1.03,-4.6 -0.87,-4.63 -0.73,-4.66 -0.59,-4.67 -0.43,-4.69 -0.29,-4.71 -0.14,-4.71 0.02,-4.71 0.16,-4.71 0.3,-4.71 0.46,-4.69 0.6,-4.67 0.76,-4.65 0.89,-4.63 1.05,-4.59 1.19,-4.57 1.33,-4.52 1.47,-4.47 1.62,-4.43 1.75,-4.37 1.89,-4.32 2.03,-4.26 2.15,-4.19 2.3,-4.11 2.41,-4.05 2.55,-3.97 2.67,-3.88 2.79,-3.8 2.91,-3.7 3.03,-3.62 3.13,-3.51 3.25,-3.42 3.35,-3.31 3.46,-3.21 3.55,-3.09 3.66,-2.98 3.74,-2.86 3.83,-2.75 3.92,-2.62 4,-2.49 4.07,-2.37 4.15,-2.24 4.21,-2.11 4.28,-1.97 4.34,-1.83 4.4,-1.7 4.45,-1.56 4.49,-1.42 4.54,-1.27 4.57,-1.14 4.61,-0.98 4.64,-0.84 4.66,-0.7 4.68,-0.54 4.7,-0.4 4.71,-0.25 4.71,-0.1 4.71,0.05 4.71,0.2 4.7,0.34 4.69,0.49 4.66,0.65 4.65,0.78 4.62,0.94 4.59,1.08 4.55,1.22 4.51,1.37 4.46,1.51 4.42,1.65 4.36,1.79 4.3,1.92 4.24,2.06 4.17,2.19 4.1,2.33 4.03,2.45 3.94,2.57 3.87,2.7 3.77,2.82 3.69,2.94 3.59,3.06 3.49,3.16 3.39,3.28 3.28,3.37 3.18,3.49 3.06,3.58 2.95,3.67 2.84,3.77 2.71,3.85 2.59,3.94 2.47,4.01 2.33,4.1 2.21,4.16 2.07,4.23 1.94,4.3 1.8,4.36 1.66,4.4 1.53,4.46 1.38,4.51 1.24,4.55 1.09,4.58 0.95,4.62 0.81,4.64 0.65,4.67 0.51,4.68 0.36,4.7 0.22,4.71 0.06,4.71 -0.08,4.71 -0.24,4.71 -0.38,4.7 -0.53,4.68 -0.68,4.67 -0.82,4.64 -0.98,4.61 -1.11,4.58 -1.26,4.54 -1.41,4.5 -1.54,4.45 -1.68,4.4 -1.83,4.35 -1.95,4.28 -2.1,4.23 -2.22,4.15 -2.36,4.08 -2.48,4.01 -2.61,3.92 -2.73,3.85 -2.85,3.75 -2.97,3.66 -3.08,3.56 -3.19,3.47 -3.3,3.37 -3.41,3.25 -3.5,3.15 -3.61,3.04 -3.69,2.92 -3.79,2.8 -3.88,2.69 -3.96,2.56 -4.03,2.43 -4.11,2.3 -4.19,2.18 -4.24,2.03 -4.31,1.91 -4.37,1.77 -4.43,1.63 -4.47,1.48 -4.51,1.35 -4.56,1.2 -4.59,1.06 -4.63,0.92 -4.65,0.76 -4.67,0.62 -4.69,0.47 -4.7,0.33 -4.71,0.17 -4.71,0.03 -4.71,-0.12 -4.71,-0.27"
       style="fill:none;stroke:#000000;stroke-width:0.08;stroke-linecap:round;stroke-linejoin:round;stroke-miterlimit:10;stroke-dasharray:none;stroke-opacity:1"
       id="path1012" /><path
       d="m 1373.1384,469.86694 -4.14,-0.37 -4.12,-0.5 -4.11,-0.63 -4.08,-0.76 -4.06,-0.89 -4.03,-1.01 -4,-1.14 -3.95,-1.27 -3.92,-1.4 -3.86,-1.51 -3.82,-1.64 -3.77,-1.75 -3.71,-1.88 -3.64,-1.99 -3.58,-2.1 -3.52,-2.22 -3.44,-2.32 -3.37,-2.44 -3.29,-2.54 -3.2,-2.64 -3.12,-2.74 -3.04,-2.84 -2.94,-2.93 -2.85,-3.03 -2.75,-3.11 -2.65,-3.2 -2.55,-3.28 -2.45,-3.36 -2.34,-3.43 -2.22,-3.51 -2.12,-3.57 -2,-3.64 -1.89,-3.7 -1.77,-3.76 -1.65,-3.82 -1.52,-3.86 -1.41,-3.91 -1.28,-3.95 -1.15,-3.99 -1.03,-4.03 -0.91,-4.05 -0.77,-4.08 -0.64,-4.11 -0.52,-4.12 -0.38,-4.14 -0.25,-4.15 -0.12,-4.15 0.01,-4.15 0.14,-4.15 0.27,-4.15 0.4,-4.14 0.53,-4.12 0.67,-4.1 0.79,-4.08 0.92,-4.05 1.05,-4.02 1.17,-3.98 1.3,-3.95 1.42,-3.9 1.55,-3.86 1.66,-3.8 1.79,-3.75 1.9,-3.7 2.02,-3.63 2.14,-3.56 2.24,-3.5 2.35,-3.42 2.46,-3.35 2.57,-3.27 2.66,-3.19 2.77,-3.1 2.86,-3.01 2.96,-2.92 3.05,-2.82 3.13,-2.73 3.22,-2.62 3.3,-2.53 3.38,-2.42 3.45,-2.31 3.52,-2.2 3.6,-2.08 3.65,-1.98 3.72,-1.85 3.77,-1.74 3.83,-1.62 3.87,-1.5 3.92,-1.37 3.97,-1.25 4,-1.13 4.03,-0.99 4.06,-0.87 4.09,-0.74 4.11,-0.62 4.12,-0.48 4.14,-0.35 4.15,-0.22 4.16,-0.09 4.15,0.05 4.15,0.17 4.15,0.3 4.13,0.44 4.11,0.56 4.1,0.7 4.07,0.82 4.04,0.95 4.02,1.08 3.97,1.21 3.94,1.33 3.89,1.45 3.84,1.58 3.8,1.7 3.73,1.81 3.68,1.93 3.62,2.05 3.54,2.16 3.48,2.27 3.41,2.38 3.33,2.49 3.24,2.59 3.17,2.69 3.08,2.79 2.99,2.89 2.89,2.98 2.8,3.07 2.7,3.15 2.6,3.24 2.5,3.32 2.39,3.4 2.29,3.47 2.17,3.54 2.06,3.61 1.94,3.67 1.83,3.73 1.71,3.79 1.59,3.84 1.46,3.89 1.35,3.93 1.22,3.97 1.09,4.01 0.96,4.04 0.84,4.07 0.71,4.09 0.58,4.11 0.45,4.13 0.32,4.15 0.18,4.15 0.06,4.15 -0.08,4.16 -0.2,4.14 -0.34,4.15 -0.47,4.12 -0.6,4.11 -0.72,4.1 -0.86,4.06 -0.98,4.04 -1.11,4 -1.24,3.97 -1.36,3.92 -1.49,3.88 -1.6,3.83 -1.73,3.78 -1.84,3.72 -1.97,3.67 -2.07,3.6 -2.19,3.53 -2.3,3.46 -2.41,3.38 -2.51,3.31 -2.62,3.23 -2.71,3.14 -2.82,3.06 -2.91,2.96 -3,2.88 -3.09,2.77 -3.18,2.68 -3.26,2.57 -3.33,2.48 -3.42,2.36 -3.49,2.26 -3.56,2.14 -3.62,2.03 -3.69,1.92 -3.74,1.8 -3.8,1.67 -3.86,1.56 -3.89,1.44 -3.95,1.31 -3.98,1.19 -4.01,1.06 -4.05,0.93 -4.08,0.81 -4.1,0.67 -4.12,0.55 -4.13,0.42 -4.14,0.28 -4.16,0.15 -4.15,0.03 -4.15,-0.11 -4.15,-0.24"
       style="fill:none;stroke:#000000;stroke-width:0.08;stroke-linecap:round;stroke-linejoin:round;stroke-miterlimit:10;stroke-dasharray:none;stroke-opacity:1"
       id="path1014" /><text
       transform="scale(1,-1)"
       style="font-style:normal;font-variant:normal;font-weight:normal;font-stretch:normal;font-size:24px;font-family:Calibri;-inkscape-font-specification:'Calibri, Normal';font-variant-ligatures:normal;font-variant-caps:normal;font-variant-numeric:normal;font-variant-east-asian:normal;writing-mode:lr-tb;fill:#000000;fill-opacity:1;fill-rule:nonzero;stroke:none"
       id="text1018"
       x="1128.9784"
       y="-360.18936"><tspan
         x="1128.9784"
         y="-360.18936"
         sodipodi:role="line"
         id="tspan1016">DE</tspan></text><text
       transform="scale(1,-1)"
       style="font-style:normal;font-variant:normal;font-weight:normal;font-stretch:normal;font-size:24px;font-family:Calibri;-inkscape-font-specification:'Calibri, Normal';font-variant-ligatures:normal;font-variant-caps:normal;font-variant-numeric:normal;font-variant-east-asian:normal;writing-mode:lr-tb;fill:#000000;fill-opacity:1;fill-rule:nonzero;stroke:none"
       id="text1022"
       x="1127.2983"
       y="-334.33279"><tspan
         x="1127.2983"
         y="-334.33279"
         sodipodi:role="line"
         id="tspan1020">146</tspan></text><text
       transform="scale(1,-1)"
       style="font-style:normal;font-variant:normal;font-weight:normal;font-stretch:normal;font-size:24px;font-family:Calibri;-inkscape-font-specification:'Calibri, Normal';font-variant-ligatures:normal;font-variant-caps:normal;font-variant-numeric:normal;font-variant-east-asian:normal;writing-mode:lr-tb;fill:#000000;fill-opacity:1;fill-rule:nonzero;stroke:none"
       id="text1026"
       x="1345.6913"
       y="-361.70694"><tspan
         x="1345.6913"
         y="-361.70694"
         sodipodi:role="line"
         id="tspan1024">Dif.Peak−Calling</tspan></text><text
       transform="scale(1,-1)"
       style="font-style:normal;font-variant:normal;font-weight:normal;font-stretch:normal;font-size:24px;font-family:Calibri;-inkscape-font-specification:'Calibri, Normal';font-variant-ligatures:normal;font-variant-caps:normal;font-variant-numeric:normal;font-variant-east-asian:normal;writing-mode:lr-tb;fill:#000000;fill-opacity:1;fill-rule:nonzero;stroke:none"
       id="text1030"
       x="1405.2284"
       y="-334.32693"><tspan
         x="1405.2284"
         y="-334.32693"
         sodipodi:role="line"
         id="tspan1028">109</tspan></text><text
       transform="scale(1,-1)"
       style="font-variant:normal;font-weight:normal;font-size:24.0000006px;font-family:Calibri;-inkscape-font-specification:'Calibri, Normal';writing-mode:lr-tb;fill:#000000;fill-opacity:1;fill-rule:nonzero;stroke:none;font-style:normal;font-stretch:normal;font-variant-ligatures:normal;font-variant-caps:normal;font-variant-numeric:normal;font-variant-east-asian:normal;"
       id="text1034"
       x="1278.3284"
       y="-334.32693"><tspan
         x="1278.3284"
         y="-334.32693"
         sodipodi:role="line"
         id="tspan1032">20</tspan></text></g></svg>
